# xmcd CD database file
#
# Track frame offsets:
#	150
#	32957
#	55820
#	82615
#	95135
#	125832
#	151177
#	173560
#	195992
#	225032
#	236837
#	254802
#
# Disc length: 3639 seconds
#
# Revision: 0
# Processed by: cddbd v1.5.2PL0 Copyright (c) Steve Scherf et al.
# Submitted via: CDex 1.70beta2
#
DISCID=910e350c
DTITLE=Solar - Suns of cosmic consciousness
DYEAR=2004
DGENRE=Jazz
TTITLE0=Samba de Aztac
TTITLE1=Reincarnation
TTITLE2=Remember Rockefeller at Attica
TTITLE3=In out
TTITLE4=Waltz on the Hudson
TTITLE5=Rhytm-a-ning
TTITLE6=Perk up
TTITLE7=September song
TTITLE8=Prototype for constructuve dialogue
TTITLE9=Solar 2002
TTITLE10=Come on
TTITLE11=Love in outer space
EXTD=YEAR: 2004
EXTT0=
EXTT1=
EXTT2=
EXTT3=
EXTT4=
EXTT5=
EXTT6=
EXTT7=
EXTT8=
EXTT9=
EXTT10=
EXTT11=
PLAYORDER=
